<svg xmlns="http://www.w3.org/2000/svg" viewBox="0 0 64 64">
  <defs>
    <linearGradient id="bg" x1="0" x2="1" y1="0" y2="1">
      <stop offset="0" stop-color="#5c2526"/>
      <stop offset="0.55" stop-color="#2a141b"/>
      <stop offset="1" stop-color="#0a070b"/>
    </linearGradient>
    <linearGradient id="metal" x1="0" x2="1" y1="0" y2="1">
      <stop offset="0" stop-color="#f6e6bd"/>
      <stop offset="0.45" stop-color="#d6a85e"/>
      <stop offset="1" stop-color="#8a5b28"/>
    </linearGradient>
  </defs>
  <rect width="64" height="64" rx="14" fill="url(#bg)"/>
  <path d="M32 6l18 8v14c0 13.5-8.4 24.8-18 29.2C22.4 52.8 14 41.5 14 28V14l18-8z" fill="none" stroke="#d7b071" stroke-width="2.2"/>
  <path d="M23 46V18h10.4c6.2 0 10.1 3.3 10.1 8.7 0 3.9-2.1 6.6-5.8 7.9l7.3 11.4h-7.4l-6.3-10.1H29V46zm6-15.3h3.2c3.4 0 5.2-1.3 5.2-3.8 0-2.6-1.8-3.9-5.2-3.9H29z" fill="url(#metal)"/>
  <path d="M19 50h26" stroke="#f7edd9" stroke-opacity=".28" stroke-width="1.8" stroke-linecap="round"/>
  <circle cx="45.5" cy="18.5" r="3" fill="#d07a3d"/>
</svg>
